<?xml version="1.0" encoding="iso-8859-1"?>
<!-- Generator: Adobe Illustrator 19.0.0, SVG Export Plug-In . SVG Version: 6.00 Build 0)  -->
<svg version="1.1" id="Capa_1" xmlns="http://www.w3.org/2000/svg" xmlns:xlink="http://www.w3.org/1999/xlink" x="0px" y="0px"
	 viewBox="0 0 512 512" style="enable-background:new 0 0 512 512;" xml:space="preserve">
<g>
	<path style="fill:#E82934;" d="M485.289,393.845L257.026,267.14c-0.328-0.18-0.677-0.264-1.026-0.264
		c-0.36,0-0.719,0.084-1.037,0.264L26.711,393.845c-1.936,1.068-4.02-1.173-2.803-3.012L254.223,43.451
		c0.423-0.634,1.1-0.951,1.777-0.951c0.666,0,1.344,0.317,1.767,0.951l230.326,347.381
		C489.309,392.672,487.225,394.913,485.289,393.845z"/>
	<path style="fill:#E82934;" d="M509.874,469.5H2.126c-2.264,0-2.951-3.044-0.92-4.017L255.08,344.18
		c0.286-0.138,0.603-0.212,0.92-0.212c0.307,0,0.614,0.074,0.91,0.212l253.884,121.303C512.825,466.456,512.137,469.5,509.874,469.5
		z"/>
</g>
<g>
	<path style="fill:#C7232C;" d="M485.289,393.845L257.026,267.14c-0.328-0.18-0.677-0.264-1.026-0.264l-1.777-223.425L256,42.5
		c0.666,0,1.344,0.317,1.767,0.951l230.326,347.381C489.309,392.672,487.225,394.913,485.289,393.845z"/>
	<path style="fill:#C7232C;" d="M509.874,469.5H256V343.968c0.307,0,0.614,0.074,0.91,0.212l253.884,121.303
		C512.825,466.456,512.137,469.5,509.874,469.5z"/>
</g>
<g>
</g>
<g>
</g>
<g>
</g>
<g>
</g>
<g>
</g>
<g>
</g>
<g>
</g>
<g>
</g>
<g>
</g>
<g>
</g>
<g>
</g>
<g>
</g>
<g>
</g>
<g>
</g>
<g>
</g>
</svg>
