<svg id="Capa_1" enable-background="new 0 0 512.329 512.329" height="512" viewBox="0 0 512.329 512.329" width="512" xmlns="http://www.w3.org/2000/svg"><g><g><g><path d="m273.273 282.901v-76.106-55.85h-34.217v55.684 63.09 57.131h34.217z" fill="#aa9ea9"/></g><g><path d="m392.127 376.451h-14.601c-4.142 0-7.5-3.358-7.5-7.5s3.358-7.5 7.5-7.5h14.601c4.142 0 7.5 3.358 7.5 7.5s-3.357 7.5-7.5 7.5z" fill="#fcb64d"/></g><g><path d="m34.556 376.451h-14.601c-4.142 0-7.5-3.358-7.5-7.5s3.358-7.5 7.5-7.5h14.601c4.142 0 7.5 3.358 7.5 7.5s-3.358 7.5-7.5 7.5z" fill="#fcb64d"/></g><path d="m198.205 341.836-18.418 1.947c-9.931 1.05-19.628-3.484-25.19-11.779l-2.425-3.616c-1.812-2.701-.015-6.35 3.23-6.562l10.69-.697c4.65-.303 9.142-1.808 13.036-4.368l15.175-9.975 21.019-17.883 5.857 47.951z" fill="#fcb64d"/><g><path d="m210.361 334.798-18.418 1.947c-9.931 1.05-19.628-3.484-25.19-11.779l-2.425-3.616c-.023-.034-.038-.069-.059-.103l-8.866.578c-3.246.212-5.042 3.861-3.231 6.562l2.425 3.616c5.562 8.294 15.259 12.828 25.19 11.779l18.418-1.947 22.975-4.982-.524-4.288z" fill="#fda92f"/></g><path d="m347.779 343.843h-66.451-.007c4.27-7.148 6.73-15.502 6.73-24.434 0-26.356-21.366-47.722-47.722-47.722s-47.722 21.366-47.722 47.722c0 12.922 5.144 24.635 13.485 33.228l-3.977 4.906c-7.633 9.414-11.798 21.165-11.798 33.285v2.099c0 15.376 6.696 29.99 18.342 40.029 9.594 8.271 21.841 12.821 34.508 12.821h20.659c19.879 0 39.161-6.791 54.653-19.247 20.59-16.555 32.566-41.551 32.566-67.971v-11.451c0-1.803-1.462-3.265-3.266-3.265z" fill="#fee565"/><path d="m271.524 441.953c-12.667 0-24.914-4.55-34.508-12.821-11.646-10.04-18.342-24.653-18.342-40.029v-2.098c0-12.12 4.165-23.871 11.798-33.286l.014-.017c2.178-2.686 2.281-6.524.189-9.276-6.091-8.01-9.711-18-9.711-28.84 0-19.105 11.246-35.591 27.462-43.214-2.628-.449-5.341-.684-8.098-.684-26.356 0-47.722 21.366-47.722 47.722 0 12.922 5.144 24.635 13.485 33.228l-3.978 4.906c-7.633 9.414-11.798 21.165-11.798 33.285v2.099c0 15.376 6.696 29.99 18.342 40.029 9.594 8.271 21.841 12.821 34.508 12.821h20.659c8.717 0 17.319-1.307 25.537-3.823h-17.837z" fill="#fdd62f"/><path d="m489.596 381.999h-41.576-.004c2.672-4.472 4.211-9.699 4.211-15.288 0-16.49-13.368-29.858-29.858-29.858s-29.858 13.368-29.858 29.858c0 8.085 3.218 15.414 8.437 20.79l-2.489 3.069c-4.776 5.89-7.382 13.243-7.382 20.826v1.313c0 9.62 4.19 18.764 11.476 25.045 6.003 5.175 13.665 8.022 21.591 8.022h12.926c12.438 0 24.502-4.249 34.195-12.042 12.883-10.358 20.375-25.998 20.375-42.528v-7.164c-.001-1.128-.915-2.043-2.044-2.043z" fill="#fee565"/><path d="m425.852 437.755c-7.287-6.281-11.476-15.425-11.476-25.045v-1.313c0-7.583 2.606-14.936 7.382-20.826l2.489-3.069c-5.219-5.376-8.437-12.705-8.437-20.79 0-12.357 7.507-22.96 18.209-27.5-3.58-1.518-7.516-2.359-11.65-2.359-16.49 0-29.858 13.368-29.858 29.858 0 8.085 3.218 15.414 8.437 20.79l-2.489 3.069c-4.776 5.89-7.382 13.243-7.382 20.826v1.313c0 9.62 4.19 18.764 11.476 25.045 6.003 5.175 13.665 8.022 21.591 8.022h12.926c1.945 0 3.895-.105 5.814-.31-6.263-.875-12.195-3.54-17.032-7.711z" fill="#fdd62f"/><circle cx="256.665" cy="106.922" fill="#84ace1" r="99.264"/><path d="m211.794 106.922c0-45.391 30.467-83.667 72.067-95.492-8.643-2.457-17.766-3.772-27.197-3.772-54.822 0-99.264 44.442-99.264 99.264s44.442 99.264 99.264 99.264c9.431 0 18.554-1.315 27.197-3.772-41.6-11.825-72.067-50.101-72.067-95.492z" fill="#558ed6"/><circle cx="256.665" cy="106.922" fill="#efedef" r="69.264"/><path d="m237.374 173.433c-15.898-17.601-25.58-40.925-25.58-66.51s9.682-48.909 25.58-66.51c-28.832 8.377-49.974 35.013-49.974 66.51s21.142 58.133 49.974 66.51z" fill="#e5e1e5"/><circle cx="256.665" cy="106.922" fill="#ea596c" r="39.264"/><path d="m132.025 381.999h-41.577-.004c2.672-4.472 4.211-9.699 4.211-15.288 0-16.49-13.368-29.858-29.858-29.858s-29.858 13.368-29.858 29.858c0 8.085 3.218 15.414 8.437 20.79l-2.489 3.069c-4.776 5.89-7.382 13.243-7.382 20.826v1.313c0 9.62 4.19 18.764 11.476 25.045 6.003 5.175 13.665 8.022 21.591 8.022h12.926c12.438 0 24.502-4.249 34.195-12.042 12.883-10.358 20.375-25.998 20.375-42.528v-7.164c0-1.128-.915-2.043-2.043-2.043z" fill="#fee565"/><path d="m71.142 437.755c-7.287-6.281-11.476-15.425-11.476-25.045v-1.313c0-7.583 2.606-14.936 7.382-20.826l2.489-3.069c-5.219-5.376-8.437-12.705-8.437-20.79 0-11.798 6.845-21.995 16.778-26.844-3.951-1.929-8.388-3.014-13.08-3.014-16.49 0-29.858 13.368-29.858 29.858 0 8.085 3.218 15.414 8.437 20.79l-2.489 3.069c-4.776 5.89-7.382 13.243-7.382 20.826v1.313c0 9.62 4.19 18.764 11.476 25.045 6.003 5.175 13.665 8.022 21.591 8.022h12.926c2.496 0 4.975-.171 7.425-.507-5.805-1.036-11.263-3.619-15.782-7.515z" fill="#fdd62f"/><circle cx="428.045" cy="224.675" fill="#efedef" r="63.594"/><path d="m412.112 224.675c0-26.692 16.453-49.529 39.763-58.96-7.362-2.979-15.401-4.634-23.831-4.634-35.122 0-63.594 28.472-63.594 63.594s28.472 63.594 63.594 63.594c8.43 0 16.469-1.655 23.831-4.634-23.31-9.432-39.763-32.268-39.763-58.96z" fill="#e5e1e5"/><path d="m428.045 258.269c-18.524 0-33.594-15.07-33.594-33.594 0-18.523 15.07-33.594 33.594-33.594s33.594 15.07 33.594 33.594c0 18.523-15.07 33.594-33.594 33.594z" fill="#ea596c"/><path d="m412.112 224.675c0-12.052 3.363-23.312 9.188-32.913-15.303 3.131-26.849 16.699-26.849 32.913s11.547 29.782 26.85 32.914c-5.826-9.602-9.189-20.862-9.189-32.914z" fill="#e43e54"/><circle cx="85.284" cy="224.675" fill="#efedef" r="63.594"/><path d="m66.789 224.675c0-27.179 17.057-50.364 41.045-59.465-7.01-2.66-14.607-4.129-22.549-4.129-35.122 0-63.594 28.472-63.594 63.594s28.472 63.594 63.594 63.594c7.943 0 15.539-1.469 22.549-4.128-23.989-9.103-41.045-32.287-41.045-59.466z" fill="#e5e1e5"/><path d="m85.284 258.269c18.524 0 33.594-15.07 33.594-33.594 0-18.523-15.07-33.594-33.594-33.594s-33.594 15.07-33.594 33.594c0 18.523 15.07 33.594 33.594 33.594z" fill="#ea596c"/><path d="m66.789 224.675c0-11.728 3.182-22.709 8.721-32.139-13.771 4.196-23.819 17.015-23.819 32.139 0 15.125 10.049 27.943 23.819 32.14-5.539-9.431-8.721-20.412-8.721-32.14z" fill="#e43e54"/><path d="m494.115 447.748h-475.901c-5.917 0-10.714 4.797-10.714 10.714v35.496c0 5.917 4.797 10.714 10.714 10.714h475.901c5.917 0 10.714-4.797 10.714-10.714v-35.496c0-5.918-4.797-10.714-10.714-10.714z" fill="#84ace1"/><path d="m83.834 493.957v-35.496c0-5.917 4.797-10.714 10.714-10.714h-76.334c-5.917 0-10.714 4.797-10.714 10.714v35.496c0 5.917 4.797 10.714 10.714 10.714h76.334c-5.917 0-10.714-4.797-10.714-10.714z" fill="#558ed6"/></g><g><path d="m223.82 305.133v6.138c0 4.142 3.358 7.5 7.5 7.5s7.5-3.358 7.5-7.5v-6.138c0-4.142-3.358-7.5-7.5-7.5s-7.5 3.357-7.5 7.5z"/><path d="m333.429 106.922c0-42.328-34.436-76.764-76.764-76.764s-76.765 34.436-76.765 76.764c0 13.786 3.726 27.329 10.775 39.165 2.121 3.559 6.723 4.727 10.281 2.606 3.559-2.12 4.726-6.723 2.606-10.281-5.667-9.516-8.663-20.405-8.663-31.49 0-34.057 27.708-61.764 61.764-61.764s61.764 27.708 61.764 61.764-27.708 61.764-61.764 61.764c-11.813 0-23.316-3.378-33.267-9.771-3.484-2.236-8.124-1.227-10.364 2.257-2.238 3.485-1.228 8.125 2.257 10.363 12.374 7.949 26.681 12.15 41.373 12.15 42.331.001 76.767-34.435 76.767-76.763z"/><path d="m256.665 153.686c25.786 0 46.764-20.979 46.764-46.764s-20.979-46.764-46.764-46.764-46.765 20.978-46.765 46.764 20.979 46.764 46.765 46.764zm0-78.528c17.515 0 31.764 14.25 31.764 31.764s-14.25 31.764-31.764 31.764-31.764-14.25-31.764-31.764 14.249-31.764 31.764-31.764z"/><path d="m469.139 224.675c0-22.659-18.435-41.094-41.094-41.094-22.66 0-41.094 18.435-41.094 41.094 0 22.66 18.435 41.094 41.094 41.094 22.66 0 41.094-18.435 41.094-41.094zm-67.188 0c0-14.388 11.706-26.094 26.094-26.094s26.094 11.706 26.094 26.094-11.706 26.094-26.094 26.094-26.094-11.706-26.094-26.094z"/><path d="m126.378 224.675c0-22.659-18.435-41.094-41.094-41.094s-41.094 18.435-41.094 41.094c0 22.66 18.435 41.094 41.094 41.094s41.094-18.435 41.094-41.094zm-67.188 0c0-14.388 11.706-26.094 26.094-26.094s26.094 11.706 26.094 26.094-11.706 26.094-26.094 26.094-26.094-11.706-26.094-26.094z"/><path d="m494.115 440.248h-19.02c.289-.224.583-.439.868-.668 14.729-11.842 23.176-29.474 23.176-48.373v-7.165c0-5.262-4.281-9.543-9.543-9.543h-30.69c.542-2.548.82-5.158.82-7.788 0-15.962-10.066-29.612-24.181-34.951v-36.39c35.688-3.76 63.594-34.027 63.594-70.696 0-39.201-31.893-71.094-71.094-71.094-39.202 0-71.094 31.893-71.094 71.094 0 36.668 27.905 66.936 63.594 70.696v34.03c-17.991.869-32.677 14.524-35.159 32.052h-7.86c-4.142 0-7.5 3.358-7.5 7.5s3.358 7.5 7.5 7.5h8.79c1.06 3.936 2.737 7.677 5.026 11.075-5.022 6.908-7.767 15.304-7.767 23.87v1.313c0 10.275 3.886 20.083 10.783 27.538h-82.65c3.996-2.337 7.839-4.954 11.47-7.873 22.476-18.072 35.366-44.977 35.366-73.817v-11.45c0-5.936-4.829-10.766-10.765-10.766h-11.407c-4.142 0-7.5 3.358-7.5 7.5s3.358 7.5 7.5 7.5h7.172v7.216c0 24.273-10.849 46.917-29.765 62.126-14.109 11.345-31.85 17.592-49.953 17.592h-20.659c-10.866 0-21.381-3.907-29.611-11.002-10.002-8.623-15.739-21.142-15.739-34.349v-2.099c0-10.366 3.596-20.51 10.124-28.562l3.978-4.905c2.392-2.95 2.201-7.223-.444-9.948-2.682-2.763-4.918-5.849-6.682-9.164-.016-.029-.032-.058-.048-.086-3.027-5.722-4.637-12.125-4.637-18.754 0-22.178 18.043-40.222 40.222-40.222 22.178 0 40.222 18.043 40.222 40.222 0 5.877-1.305 11.651-3.76 16.934h-6.111c-4.142 0-7.5 3.358-7.5 7.5s3.358 7.5 7.5 7.5h10.648 6.865 16.217c4.142 0 7.5-3.358 7.5-7.5s-3.358-7.5-7.5-7.5h-11.516c1.752-5.443 2.657-11.157 2.657-16.934 0-14.489-5.617-27.685-14.778-37.546v-70.922c47.298-10.958 82.656-53.437 82.656-104.019 0-58.87-47.894-106.764-106.764-106.764s-106.766 47.896-106.766 106.766c0 50.224 34.862 92.452 81.656 103.774v54.195c-20.469 3.282-37.204 17.853-43.62 37.105l-12.927 8.497c-2.804 1.843-6.056 2.932-9.405 3.151l-10.69.697c-4.169.272-7.906 2.77-9.752 6.519-1.845 3.749-1.546 8.233.781 11.705l2.425 3.616c6.447 9.614 17.15 15.253 28.555 15.253 1.21 0 2.431-.064 3.653-.193l13.655-1.443c.668 1.009 1.362 2.004 2.099 2.973l-.04.049c-8.688 10.716-13.473 24.214-13.473 38.009v2.099c0 17.575 7.634 34.236 20.945 45.709.641.553 1.295 1.088 1.957 1.612h-32.285c-4.142 0-7.5 3.358-7.5 7.5s3.358 7.5 7.5 7.5h320.682c1.772 0 3.214 1.442 3.214 3.214v35.496c0 1.772-1.442 3.214-3.214 3.214h-475.9c-1.772 0-3.214-1.442-3.214-3.214v-35.496c0-1.772 1.442-3.214 3.214-3.214h123.254c4.142 0 7.5-3.358 7.5-7.5s-3.358-7.5-7.5-7.5h-23.947c.289-.224.583-.439.868-.668 14.729-11.842 23.176-29.474 23.176-48.373v-7.165c0-5.262-4.281-9.543-9.543-9.543h-30.69c.542-2.548.82-5.158.82-7.788 0-9.467-3.546-18.116-9.371-24.707v-46.635c35.689-3.76 63.594-34.027 63.594-70.696 0-39.201-31.893-71.094-71.094-71.094s-71.094 31.893-71.094 71.094c0 36.668 27.906 66.936 63.594 70.696v36.315c-4.047-1.506-8.422-2.332-12.987-2.332-18.814 0-34.416 13.981-36.981 32.098h-7.86c-4.142 0-7.5 3.358-7.5 7.5s3.358 7.5 7.5 7.5h8.79c1.06 3.936 2.737 7.677 5.026 11.075-5.022 6.908-7.767 15.304-7.767 23.87v1.313c0 10.275 3.886 20.083 10.783 27.538h-18.573c-10.043.001-18.214 8.172-18.214 18.215v35.496c0 10.042 8.171 18.213 18.214 18.213h475.9c10.043 0 18.214-8.171 18.214-18.214v-35.496c.001-10.042-8.17-18.213-18.213-18.213zm-122.164-215.573c0-30.93 25.164-56.094 56.094-56.094s56.094 25.164 56.094 56.094c0 30.931-25.164 56.094-56.094 56.094s-56.094-25.164-56.094-56.094zm50.417 119.678c12.329 0 22.358 10.03 22.358 22.358 0 2.673-.488 5.308-1.409 7.788h-1.96c-4.142 0-7.5 3.358-7.5 7.5s3.358 7.5 7.5 7.5h6.662 4.295 31.824v1.708c0 14.333-6.406 27.703-17.575 36.683-8.331 6.698-18.806 10.387-29.495 10.387h-12.926c-6.125 0-12.054-2.203-16.694-6.203-5.639-4.861-8.873-11.919-8.873-19.365v-1.313c0-5.844 2.027-11.563 5.708-16.103l2.488-3.069c2.392-2.95 2.201-7.222-.445-9.947-4.074-4.197-6.318-9.725-6.318-15.566.001-12.328 10.031-22.358 22.36-22.358zm-257.468-237.431c0-50.599 41.165-91.764 91.764-91.764s91.764 41.165 91.764 91.764-41.165 91.764-91.764 91.764-91.764-41.165-91.764-91.764zm91.765 106.764c3.068 0 6.105-.138 9.108-.393v57.129c-5.871-3.062-12.353-5.101-19.217-5.875v-51.343c3.329.315 6.699.482 10.109.482zm-77.666 122.638c-6.728.708-13.264-2.1-17.372-7.388l4.953-.323c5.935-.387 11.698-2.318 16.668-5.584l1.91-1.256c.197 4.679.984 9.259 2.314 13.656zm-149.809-111.649c0-30.93 25.164-56.094 56.094-56.094 30.931 0 56.094 25.164 56.094 56.094 0 30.931-25.164 56.094-56.094 56.094s-56.094-25.164-56.094-56.094zm35.606 119.678c12.329 0 22.358 10.03 22.358 22.358 0 2.673-.488 5.308-1.409 7.788h-1.959c-4.142 0-7.5 3.358-7.5 7.5s3.358 7.5 7.5 7.5h6.662 4.295 31.824v1.708c0 14.333-6.406 27.703-17.575 36.683-8.331 6.698-18.806 10.387-29.495 10.387h-12.925c-6.125 0-12.054-2.203-16.694-6.203-5.639-4.861-8.873-11.919-8.873-19.365v-1.313c0-5.844 2.027-11.563 5.708-16.102l2.489-3.069c2.392-2.95 2.201-7.223-.444-9.948-4.075-4.197-6.319-9.725-6.319-15.566-.001-12.328 10.029-22.358 22.357-22.358z"/></g></g></svg>